<svg xmlns="http://www.w3.org/2000/svg" width="119" height="16" viewBox="0 0 119 16"><g><g><g><g><path fill="#ff6d05" d="M.516 11.735L0 15.367l3.7-.009.516-3.632z"/></g><g><path fill="#ffca75" d="M12.455 4.445L12.97.813l3.7-.009-.517 3.633z"/></g><g><path fill="#ffa019" d="M6.323 9.81l.517-3.632 3.699-.008-.517 3.632z"/></g></g><g><g><path fill="#ff6d05" d="M5.557 15.367l.516-3.632 3.7-.009-.517 3.633z"/></g><g><path fill="#ffa019" d="M11.688 9.81l.517-3.632 3.699-.008-.516 3.632z"/></g></g><g><g><path fill="#ff6d05" d="M10.922 15.367l.516-3.632 3.7-.009-.517 3.633z"/></g></g><g><g><path d="M22.882.804h-3.214l-2.04 14.563h9.17l.411-2.962h-5.954z"/></g><g><path d="M27.592 15.367h3.165l1.434-9.964h-3.164z"/></g><g><path d="M41.118 5.403l-3.354 6.766h-.041L36.14 5.403h-3.374l2.77 9.964h3.312l5.415-9.964z"/></g><g><path d="M48.449 7.252c.558 0 .993.187 1.292.558.3.37.41.822.328 1.343h-4.06a2.396 2.396 0 0 1 .8-1.312c.204-.172.445-.314.717-.424a2.46 2.46 0 0 1 .923-.165zm-.861 8.307a6.08 6.08 0 0 0 2.41-.517 5.915 5.915 0 0 0 2.06-1.467l-1.927-1.591c-.313.356-.661.651-1.036.878-.374.226-.82.34-1.323.34-.599 0-1.085-.176-1.446-.526-.36-.35-.564-.826-.605-1.415h7.138l.143-.972c.109-.795.098-1.525-.03-2.17-.13-.643-.368-1.203-.708-1.663a3.362 3.362 0 0 0-1.333-1.064c-.544-.247-1.18-.372-1.887-.372-.763 0-1.508.125-2.215.372a6.193 6.193 0 0 0-1.908 1.064 6.134 6.134 0 0 0-1.405 1.664 5.883 5.883 0 0 0-.728 2.17c-.109.794-.064 1.524.134 2.17.197.643.514 1.203.943 1.663.429.459.97.817 1.61 1.064.64.247 1.35.372 2.113.372z"/></g><g><path d="M62.63 12.371a4.06 4.06 0 0 1-1.83.412 3.574 3.574 0 0 1-1.59-.35 3.207 3.207 0 0 1-1.185-.979 3.935 3.935 0 0 1-.665-1.483c-.132-.57-.15-1.198-.052-1.885A5.874 5.874 0 0 1 57.9 6.21a5.636 5.636 0 0 1 1.102-1.494 4.853 4.853 0 0 1 1.487-.979 4.454 4.454 0 0 1 1.746-.35c.61 0 1.13.103 1.559.31.429.205.783.5 1.06.885l2.786-2.02a3.712 3.712 0 0 0-.926-1.009A5.078 5.078 0 0 0 65.54.895a6.456 6.456 0 0 0-1.279-.36A7.52 7.52 0 0 0 62.984.42c-1.15 0-2.238.179-3.264.536a8.661 8.661 0 0 0-2.733 1.535 8.65 8.65 0 0 0-1.996 2.42c-.534.949-.884 2.006-1.05 3.174-.166 1.167-.118 2.225.146 3.173.263.947.7 1.754 1.31 2.42.609.667 1.375 1.178 2.296 1.536.922.357 1.958.535 3.108.535 1.012 0 2.023-.206 3.035-.618a6.9 6.9 0 0 0 2.64-1.916l-2.41-1.999c-.403.495-.881.88-1.435 1.154"/></g><g><path d="M73.932 10.91l-.083.66a1.819 1.819 0 0 1-.311.827c-.165.233-.37.428-.611.578a3.05 3.05 0 0 1-.808.352 3.37 3.37 0 0 1-.902.124c-.164 0-.335-.02-.507-.062a1.157 1.157 0 0 1-.446-.207 1.048 1.048 0 0 1-.29-.34.785.785 0 0 1-.062-.486c.042-.344.191-.615.446-.806.254-.192.553-.338.89-.434a4.828 4.828 0 0 1 1.036-.176c.352-.02.648-.03.881-.03zm-3.875 4.649c.632 0 1.26-.119 1.865-.352a3.514 3.514 0 0 0 1.533-1.157h.042l-.166 1.26h2.859l.704-5.103c.124-.835.163-1.583.115-2.222-.05-.638-.22-1.184-.508-1.622-.29-.439-.718-.776-1.274-1.002-.557-.226-1.3-.341-2.207-.341-.825 0-1.651.135-2.455.403a6.757 6.757 0 0 0-2.186 1.209l1.409 1.694c.384-.37.806-.665 1.253-.878a3.33 3.33 0 0 1 1.44-.32c.536 0 .982.163 1.326.485.344.322.483.764.415 1.313-.649 0-1.377.02-2.165.061a9.222 9.222 0 0 0-2.28.403 5.082 5.082 0 0 0-1.885 1.054 2.784 2.784 0 0 0-.645.86 3.885 3.885 0 0 0-.34 1.155c-.068.507-.033.96.105 1.343.136.384.356.71.652.971.295.26.654.459 1.067.59.413.13.86.196 1.326.196z"/></g><g><path d="M85.46 5.122a2.654 2.654 0 0 0-.493-.082 7.067 7.067 0 0 0-.533-.02c-.684 0-1.272.153-1.764.459-.492.305-.944.764-1.354 1.376h-.041l.226-1.59h-3.078l-1.394 9.91h3.077l.574-4.14c.068-.489.16-.937.277-1.345a3.19 3.19 0 0 1 .503-1.05c.218-.293.512-.52.882-.684.369-.163.848-.244 1.436-.244.232 0 .45.017.656.05.205.035.417.086.636.154z"/></g><g><path d="M90.604 7.252c.558 0 .993.187 1.292.558.3.37.41.822.328 1.343h-4.06a2.396 2.396 0 0 1 .8-1.312c.204-.172.445-.314.717-.424a2.46 2.46 0 0 1 .923-.165zm-.861 8.307a6.08 6.08 0 0 0 2.41-.517 5.915 5.915 0 0 0 2.06-1.467l-1.927-1.591c-.313.356-.661.651-1.036.878-.374.226-.82.34-1.323.34-.599 0-1.085-.176-1.446-.526-.36-.35-.564-.826-.605-1.415h7.138l.143-.972c.109-.795.098-1.525-.03-2.17-.13-.643-.368-1.203-.708-1.663a3.362 3.362 0 0 0-1.333-1.064c-.544-.247-1.18-.372-1.887-.372-.763 0-1.508.125-2.215.372a6.193 6.193 0 0 0-1.908 1.064 6.134 6.134 0 0 0-1.405 1.664 5.883 5.883 0 0 0-.728 2.17c-.109.794-.064 1.524.134 2.17.197.643.514 1.203.943 1.663.429.459.97.817 1.61 1.064.64.247 1.35.372 2.113.372z"/></g><g><path d="M101.526 7.252c.558 0 .993.187 1.292.558.3.37.41.822.328 1.343h-4.06a2.396 2.396 0 0 1 .8-1.312c.204-.172.445-.314.717-.424a2.46 2.46 0 0 1 .923-.165zm-.861 8.307a6.08 6.08 0 0 0 2.41-.517 5.915 5.915 0 0 0 2.06-1.467l-1.927-1.591c-.313.356-.661.651-1.036.878-.374.226-.82.34-1.323.34-.599 0-1.085-.176-1.446-.526-.36-.35-.564-.826-.605-1.415h7.138l.143-.972c.109-.795.098-1.525-.03-2.17-.13-.643-.368-1.203-.708-1.663a3.362 3.362 0 0 0-1.333-1.064c-.544-.247-1.18-.372-1.887-.372-.763 0-1.508.125-2.215.372a6.193 6.193 0 0 0-1.908 1.064 6.134 6.134 0 0 0-1.405 1.664 5.883 5.883 0 0 0-.728 2.17c-.109.794-.064 1.524.134 2.17.197.643.514 1.203.943 1.663.429.459.97.817 1.61 1.064.64.247 1.35.372 2.113.372z"/></g><g><path d="M113.56 5.02c-.685 0-1.272.153-1.765.459-.492.306-.943.764-1.354 1.376h-.04l.225-1.59h-3.077l-1.395 9.91h3.077l.574-4.14c.069-.489.161-.937.277-1.345.116-.408.284-.758.503-1.05a2.17 2.17 0 0 1 .882-.684c.37-.163.848-.244 1.436-.244a4.058 4.058 0 0 1 1.292.204l.39-2.794a2.683 2.683 0 0 0-.492-.082 7.157 7.157 0 0 0-.534-.02"/></g><g><path d="M116.876 5.42c.178 0 .344.033.492.097a1.006 1.006 0 0 1 .591.653c.045.148.055.31.03.479-.024.169-.082.33-.17.479a1.536 1.536 0 0 1-.786.652 1.436 1.436 0 0 1-.52.097c-.178 0-.344-.032-.491-.097a1.02 1.02 0 0 1-.593-.653 1.086 1.086 0 0 1-.033-.478c.024-.17.082-.33.173-.48a1.565 1.565 0 0 1 1.307-.749zm.21 2.552c.193-.076.37-.18.528-.31.157-.129.29-.282.394-.455a1.52 1.52 0 0 0 .202-.558c.03-.199.018-.386-.035-.559a1.189 1.189 0 0 0-.257-.456 1.282 1.282 0 0 0-.436-.309 1.417 1.417 0 0 0-.573-.114c-.208 0-.413.039-.608.114-.194.076-.372.18-.528.31-.156.13-.288.283-.393.455-.106.173-.174.361-.204.559a1.211 1.211 0 0 0 .732 1.323c.172.075.364.114.573.114.207 0 .411-.039.605-.114z"/></g><g><path d="M116.91 5.98c.044 0 .088.004.13.013a.326.326 0 0 1 .115.046c.033.022.057.051.074.087a.248.248 0 0 1 .014.139.322.322 0 0 1-.066.166.324.324 0 0 1-.122.089.488.488 0 0 1-.16.036c-.06.004-.117.006-.172.006h-.268l.082-.583zm-.583 1.53l.105-.755h.299l.391.756h.237l-.392-.756a.828.828 0 0 0 .167-.05.51.51 0 0 0 .256-.235.566.566 0 0 0 .062-.205c.02-.155-.004-.275-.072-.356-.068-.081-.198-.123-.385-.123h-.64l-.237 1.725h.21z"/></g><g><path d="M31.099 1.38c-.835 0-1.624.685-1.761 1.532-.138.847.427 1.533 1.263 1.533.835 0 1.623-.686 1.761-1.533.138-.847-.428-1.533-1.263-1.533"/></g></g></g></g></svg>